<svg height="100" viewBox="0 0 100 100" width="100" xmlns="http://www.w3.org/2000/svg"><path d="m80.731 1.59a1.061 1.061 0 0 0 -.266-1.265 1.081 1.081 0 0 0 -1.643.187l-29.379 42 8.057 10.064zm-41.144 58.218-1.017-1.89-11.279 16.12.376.156a13.965 13.965 0 0 1 3.864 2.375l.269.231 11.917-16.321h-3a1.237 1.237 0 0 1 -1.126-.672zm-8.638 19.885a13.273 13.273 0 0 0 -1.049-1.046 12.02 12.02 0 0 0 -4.787-2.578 1.106 1.106 0 0 0 -.3 0 10.782 10.782 0 0 0 -2.972-.391 7.494 7.494 0 0 0 -.829 0 12.229 12.229 0 0 0 .817 24.322h.814a12.189 12.189 0 0 0 11.388-13.012 11.909 11.909 0 0 0 -3.082-7.295zm-2.706 13.778a8.343 8.343 0 0 1 -5.867 2.874h-.562a8.526 8.526 0 0 1 -6.414-14.152 8.419 8.419 0 0 1 5.882-2.937h.563a8.551 8.551 0 0 1 8.542 7.967v.593a8.336 8.336 0 0 1 -2.143 5.577v.078zm61.029-8.263a12.179 12.179 0 0 0 -12.187-11.408 8.246 8.246 0 0 0 -.829 0 12.228 12.228 0 0 0 .782 24.431 7.773 7.773 0 0 0 .844 0 12.222 12.222 0 0 0 11.39-13.023zm-5.788 6.436a8.5 8.5 0 0 1 -5.884 2.905h-.577a8.544 8.544 0 0 1 -.516-17.042h.593a8.553 8.553 0 0 1 8.5 7.982v.578a8.39 8.39 0 0 1 -2.112 5.577zm-17-15.949a13.806 13.806 0 0 1 3.567-2.687l.344-.172-13.522-16.886a1.118 1.118 0 0 1 -.25-.312l-42.068-52.487a1.048 1.048 0 0 0 -.829-.422 1.08 1.08 0 0 0 -.814.422 1.031 1.031 0 0 0 -.328.781 1.182 1.182 0 0 0 .125.515l27.143 50.453 1.564 3.015h9.762a1.346 1.346 0 0 1 1.017.485l13.955 17.559zm-21.4-19.932a4.5 4.5 0 1 1 3.171-1.317 4.49 4.49 0 0 1 -3.171 1.317z" fill="#fff" fill-rule="evenodd"/></svg>